ISO-10303-21;
HEADER;
FILE_DESCRIPTION(('Open CASCADE Model'),'2;1');
FILE_NAME('Open CASCADE Shape Model','2026-09-24T16:02:08',('Author'),(
    'Open CASCADE'),'Open CASCADE STEP processor 8.0','Open CASCADE 8.0'
  ,'Unknown');
FILE_SCHEMA(('AUTOMOTIVE_DESIGN { 1 0 10303 214 1 1 1 1 }'));
ENDSEC;
DATA;
#1 = APPLICATION_PROTOCOL_DEFINITION('international standard',
  'automotive_design',2000,#2);
#2 = APPLICATION_CONTEXT(
  'core data for automotive mechanical design processes');
#3 = SHAPE_DEFINITION_REPRESENTATION(#4,#10);
#4 = PRODUCT_DEFINITION_SHAPE('','',#5);
#5 = PRODUCT_DEFINITION('design','',#6,#9);
#6 = PRODUCT_DEFINITION_FORMATION('','',#7);
#7 = PRODUCT('Open CASCADE STEP translator 8.0 7',
  'Open CASCADE STEP translator 8.0 7','',(#8));
#8 = PRODUCT_CONTEXT('',#2,'mechanical');
#9 = PRODUCT_DEFINITION_CONTEXT('part definition',#2,'design');
#10 = ADVANCED_BREP_SHAPE_REPRESENTATION('',(#11,#15),#680);
#11 = AXIS2_PLACEMENT_3D('',#12,#13,#14);
#12 = CARTESIAN_POINT('',(0.,0.,0.));
#13 = DIRECTION('',(0.,0.,1.));
#14 = DIRECTION('',(1.,0.,-0.));
#15 = MANIFOLD_SOLID_BREP('',#16);
#16 = CLOSED_SHELL('',(#17,#554,#582,#586,#621,#676));
#17 = ADVANCED_FACE('',(#18,#352),#32,.T.);
#18 = FACE_BOUND('',#19,.T.);
#19 = EDGE_LOOP('',(#20,#50,#77,#78,#193,#216,#243,#244));
#20 = ORIENTED_EDGE('',*,*,#21,.T.);
#21 = EDGE_CURVE('',#22,#24,#26,.T.);
#22 = VERTEX_POINT('',#23);
#23 = CARTESIAN_POINT('',(25.,-2.694222958124E-15,23.));
#24 = VERTEX_POINT('',#25);
#25 = CARTESIAN_POINT('',(25.,-6.123233995737E-15,80.));
#26 = SEAM_CURVE('',#27,(#31,#43),.PCURVE_S1.);
#27 = LINE('',#28,#29);
#28 = CARTESIAN_POINT('',(25.,-6.123233995737E-15,0.));
#29 = VECTOR('',#30,1.);
#30 = DIRECTION('',(0.,0.,1.));
#31 = PCURVE('',#32,#37);
#32 = CYLINDRICAL_SURFACE('',#33,25.);
#33 = AXIS2_PLACEMENT_3D('',#34,#35,#36);
#34 = CARTESIAN_POINT('',(0.,0.,0.));
#35 = DIRECTION('',(0.,0.,1.));
#36 = DIRECTION('',(1.,0.,-0.));
#37 = DEFINITIONAL_REPRESENTATION('',(#38),#42);
#38 = LINE('',#39,#40);
#39 = CARTESIAN_POINT('',(6.28318530718,-0.));
#40 = VECTOR('',#41,1.);
#41 = DIRECTION('',(0.,1.));
#42 = ( GEOMETRIC_REPRESENTATION_CONTEXT(2) 
PARAMETRIC_REPRESENTATION_CONTEXT() REPRESENTATION_CONTEXT('2D SPACE',''
  ) );
#43 = PCURVE('',#32,#44);
#44 = DEFINITIONAL_REPRESENTATION('',(#45),#49);
#45 = LINE('',#46,#47);
#46 = CARTESIAN_POINT('',(0.,-0.));
#47 = VECTOR('',#48,1.);
#48 = DIRECTION('',(0.,1.));
#49 = ( GEOMETRIC_REPRESENTATION_CONTEXT(2) 
PARAMETRIC_REPRESENTATION_CONTEXT() REPRESENTATION_CONTEXT('2D SPACE',''
  ) );
#50 = ORIENTED_EDGE('',*,*,#51,.F.);
#51 = EDGE_CURVE('',#24,#24,#52,.T.);
#52 = SURFACE_CURVE('',#53,(#58,#65),.PCURVE_S1.);
#53 = CIRCLE('',#54,25.);
#54 = AXIS2_PLACEMENT_3D('',#55,#56,#57);
#55 = CARTESIAN_POINT('',(0.,0.,80.));
#56 = DIRECTION('',(0.,0.,1.));
#57 = DIRECTION('',(1.,0.,-0.));
#58 = PCURVE('',#32,#59);
#59 = DEFINITIONAL_REPRESENTATION('',(#60),#64);
#60 = LINE('',#61,#62);
#61 = CARTESIAN_POINT('',(0.,80.));
#62 = VECTOR('',#63,1.);
#63 = DIRECTION('',(1.,0.));
#64 = ( GEOMETRIC_REPRESENTATION_CONTEXT(2) 
PARAMETRIC_REPRESENTATION_CONTEXT() REPRESENTATION_CONTEXT('2D SPACE',''
  ) );
#65 = PCURVE('',#66,#71);
#66 = PLANE('',#67);
#67 = AXIS2_PLACEMENT_3D('',#68,#69,#70);
#68 = CARTESIAN_POINT('',(0.,0.,80.));
#69 = DIRECTION('',(0.,0.,1.));
#70 = DIRECTION('',(1.,0.,-0.));
#71 = DEFINITIONAL_REPRESENTATION('',(#72),#76);
#72 = CIRCLE('',#73,25.);
#73 = AXIS2_PLACEMENT_2D('',#74,#75);
#74 = CARTESIAN_POINT('',(0.,0.));
#75 = DIRECTION('',(1.,0.));
#76 = ( GEOMETRIC_REPRESENTATION_CONTEXT(2) 
PARAMETRIC_REPRESENTATION_CONTEXT() REPRESENTATION_CONTEXT('2D SPACE',''
  ) );
#77 = ORIENTED_EDGE('',*,*,#21,.F.);
#78 = ORIENTED_EDGE('',*,*,#79,.F.);
#79 = EDGE_CURVE('',#80,#22,#82,.T.);
#80 = VERTEX_POINT('',#81);
#81 = CARTESIAN_POINT('',(25.,-6.123233995737E-15,17.));
#82 = SURFACE_CURVE('',#83,(#116,#152),.PCURVE_S1.);
#83 = B_SPLINE_CURVE_WITH_KNOTS('',7,(#84,#85,#86,#87,#88,#89,#90,#91,
    #92,#93,#94,#95,#96,#97,#98,#99,#100,#101,#102,#103,#104,#105,#106,
    #107,#108,#109,#110,#111,#112,#113,#114,#115),.UNSPECIFIED.,.F.,.F.,
  (8,6,6,6,6,8),(0.,0.15968529281,0.312439301108,0.501085286156,
    0.760377660458,1.),.UNSPECIFIED.);
#84 = CARTESIAN_POINT('',(25.,1.814704424453E-15,17.));
#85 = CARTESIAN_POINT('',(25.,0.25948094373,17.));
#86 = CARTESIAN_POINT('',(24.996858519607,0.516576270377,17.026184012428
    ));
#87 = CARTESIAN_POINT('',(24.990676265664,0.767162607518,17.077685609263
    ));
#88 = CARTESIAN_POINT('',(24.981860439124,1.007315838793,17.152592424761
    ));
#89 = CARTESIAN_POINT('',(24.971060122375,1.233560399584,17.248001565385
    ));
#90 = CARTESIAN_POINT('',(24.959048106437,1.443083904272,17.360059766547
    ));
#91 = CARTESIAN_POINT('',(24.934592737772,1.816467018199,17.602537595903
    ));
#92 = CARTESIAN_POINT('',(24.92207751779,1.983650621296,17.733076609791)
  );
#93 = CARTESIAN_POINT('',(24.90946635997,2.135601413539,17.873385093116)
  );
#94 = CARTESIAN_POINT('',(24.897144848165,2.272616513065,18.021624920749
    ));
#95 = CARTESIAN_POINT('',(24.885418803422,2.395087855472,18.176277509645
    ));
#96 = CARTESIAN_POINT('',(24.87452191945,2.503440238284,18.336085686421)
  );
#97 = CARTESIAN_POINT('',(24.852421680509,2.714948407112,18.702428581046
    ));
#98 = CARTESIAN_POINT('',(24.841735675331,2.811016832051,18.911318037838
    ));
#99 = CARTESIAN_POINT('',(24.832910655328,2.887036475625,19.124835844573
    ));
#100 = CARTESIAN_POINT('',(24.826162176406,2.943618848253,
    19.341553485539));
#101 = CARTESIAN_POINT('',(24.821619901254,2.98119875603,19.560317435513
    ));
#102 = CARTESIAN_POINT('',(24.819347291982,3.,19.780124283524));
#103 = CARTESIAN_POINT('',(24.819347291982,3.,20.302217386508));
#104 = CARTESIAN_POINT('',(24.82364047441,2.964481683427,20.60408486728)
  );
#105 = CARTESIAN_POINT('',(24.832210083046,2.89358599001,20.903301487176
    ));
#106 = CARTESIAN_POINT('',(24.84483348038,2.786458939277,21.19730954154)
  );
#107 = CARTESIAN_POINT('',(24.861065377175,2.641485165159,
    21.482813538339));
#108 = CARTESIAN_POINT('',(24.880060054949,2.456542978146,
    21.755162274849));
#109 = CARTESIAN_POINT('',(24.919185424581,2.019554526599,
    22.240487117973));
#110 = CARTESIAN_POINT('',(24.939641687386,1.7678436457,22.462863351074)
  );
#111 = CARTESIAN_POINT('',(24.960251250426,1.47458759564,22.661048385512
    ));
#112 = CARTESIAN_POINT('',(24.978775727375,1.14351140312,22.823124451679
    ));
#113 = CARTESIAN_POINT('',(24.992666941959,0.781179214291,
    22.938892660297));
#114 = CARTESIAN_POINT('',(25.,0.396402817405,23.));
#115 = CARTESIAN_POINT('',(25.,1.699661669294E-15,23.));
#116 = PCURVE('',#32,#117);
#117 = DEFINITIONAL_REPRESENTATION('',(#118),#151);
#118 = B_SPLINE_CURVE_WITH_KNOTS('',7,(#119,#120,#121,#122,#123,#124,
    #125,#126,#127,#128,#129,#130,#131,#132,#133,#134,#135,#136,#137,
    #138,#139,#140,#141,#142,#143,#144,#145,#146,#147,#148,#149,#150),
  .UNSPECIFIED.,.F.,.F.,(8,6,6,6,6,8),(0.,0.15968529281,0.312439301108,
    0.501085286156,0.760377660458,1.),.UNSPECIFIED.);
#119 = CARTESIAN_POINT('',(0.,17.));
#120 = CARTESIAN_POINT('',(1.03792377492E-02,17.));
#121 = CARTESIAN_POINT('',(2.066305254827E-02,17.026184012428));
#122 = CARTESIAN_POINT('',(3.068832473308E-02,17.077685609263));
#123 = CARTESIAN_POINT('',(4.02997985499E-02,17.152592424761));
#124 = CARTESIAN_POINT('',(4.935919303323E-02,17.248001565385));
#125 = CARTESIAN_POINT('',(5.775361902519E-02,17.360059766547));
#126 = CARTESIAN_POINT('',(7.272094422764E-02,17.602537595903));
#127 = CARTESIAN_POINT('',(7.942670852932E-02,17.733076609791));
#128 = CARTESIAN_POINT('',(8.552535492018E-02,17.873385093116));
#129 = CARTESIAN_POINT('',(9.10278896351E-02,18.021624920749));
#130 = CARTESIAN_POINT('',(9.594905261718E-02,18.176277509645));
#131 = CARTESIAN_POINT('',(0.100304977575,18.336085686421));
#132 = CARTESIAN_POINT('',(0.10881136351,18.702428581046));
#133 = CARTESIAN_POINT('',(0.112677715,18.911318037838));
#134 = CARTESIAN_POINT('',(0.115738887825,19.124835844573));
#135 = CARTESIAN_POINT('',(0.118018222873,19.341553485539));
#136 = CARTESIAN_POINT('',(0.119532357924,19.560317435513));
#137 = CARTESIAN_POINT('',(0.120289882395,19.780124283524));
#138 = CARTESIAN_POINT('',(0.120289882395,20.302217386508));
#139 = CARTESIAN_POINT('',(0.118858809343,20.60408486728));
#140 = CARTESIAN_POINT('',(0.116002336536,20.903301487176));
#141 = CARTESIAN_POINT('',(0.111687635809,21.19730954154));
#142 = CARTESIAN_POINT('',(0.105852651415,21.482813538339));
#143 = CARTESIAN_POINT('',(9.841668184794E-02,21.755162274849));
#144 = CARTESIAN_POINT('',(8.086722253617E-02,22.240487117973));
#145 = CARTESIAN_POINT('',(7.076593832491E-02,22.462863351074));
#146 = CARTESIAN_POINT('',(5.900791038748E-02,22.661048385512));
#147 = CARTESIAN_POINT('',(4.574693745801E-02,22.823124451679));
#148 = CARTESIAN_POINT('',(3.12471750201E-02,22.938892660297));
#149 = CARTESIAN_POINT('',(1.585611269622E-02,23.));
#150 = CARTESIAN_POINT('',(0.,23.));
#151 = ( GEOMETRIC_REPRESENTATION_CONTEXT(2) 
PARAMETRIC_REPRESENTATION_CONTEXT() REPRESENTATION_CONTEXT('2D SPACE',''
  ) );
#152 = PCURVE('',#153,#158);
#153 = CYLINDRICAL_SURFACE('',#154,3.);
#154 = AXIS2_PLACEMENT_3D('',#155,#156,#157);
#155 = CARTESIAN_POINT('',(-30.,0.,20.));
#156 = DIRECTION('',(1.,0.,0.));
#157 = DIRECTION('',(-0.,0.,1.));
#158 = DEFINITIONAL_REPRESENTATION('',(#159),#192);
#159 = B_SPLINE_CURVE_WITH_KNOTS('',7,(#160,#161,#162,#163,#164,#165,
    #166,#167,#168,#169,#170,#171,#172,#173,#174,#175,#176,#177,#178,
    #179,#180,#181,#182,#183,#184,#185,#186,#187,#188,#189,#190,#191),
  .UNSPECIFIED.,.F.,.F.,(8,6,6,6,6,8),(0.,0.15968529281,0.312439301108,
    0.501085286156,0.760377660458,1.),.UNSPECIFIED.);
#160 = CARTESIAN_POINT('',(3.14159265359,55.));
#161 = CARTESIAN_POINT('',(3.2280863015,55.));
#162 = CARTESIAN_POINT('',(3.313784645175,54.996858519607));
#163 = CARTESIAN_POINT('',(3.398370715358,54.990676265664));
#164 = CARTESIAN_POINT('',(3.481504203981,54.981860439124));
#165 = CARTESIAN_POINT('',(3.562786358359,54.971060122375));
#166 = CARTESIAN_POINT('',(3.641703805529,54.959048106437));
#167 = CARTESIAN_POINT('',(3.790106578599,54.934592737772));
#168 = CARTESIAN_POINT('',(3.860542912367,54.92207751779));
#169 = CARTESIAN_POINT('',(3.929117631197,54.90946635997));
#170 = CARTESIAN_POINT('',(3.996042076791,54.897144848165));
#171 = CARTESIAN_POINT('',(4.061508033322,54.885418803422));
#172 = CARTESIAN_POINT('',(4.125699556074,54.87452191945));
#173 = CARTESIAN_POINT('',(4.266705001959,54.852421680509));
#174 = CARTESIAN_POINT('',(4.343017825172,54.841735675331));
#175 = CARTESIAN_POINT('',(4.418096757351,54.832910655328));
#176 = CARTESIAN_POINT('',(4.492264339965,54.826162176406));
#177 = CARTESIAN_POINT('',(4.565827878812,54.821619901254));
#178 = CARTESIAN_POINT('',(4.639097074893,54.819347291982));
#179 = CARTESIAN_POINT('',(4.813128109221,54.819347291982));
#180 = CARTESIAN_POINT('',(4.913750364428,54.82364047441));
#181 = CARTESIAN_POINT('',(5.015160153962,54.832210083046));
#182 = CARTESIAN_POINT('',(5.118152759886,54.84483348038));
#183 = CARTESIAN_POINT('',(5.223575984182,54.861065377175));
#184 = CARTESIAN_POINT('',(5.332291156193,54.880060054949));
#185 = CARTESIAN_POINT('',(5.54998082066,54.919185424581));
#186 = CARTESIAN_POINT('',(5.661209271184,54.939641687386));
#187 = CARTESIAN_POINT('',(5.777577796582,54.960251250426));
#188 = CARTESIAN_POINT('',(5.898246566831,54.978775727375));
#189 = CARTESIAN_POINT('',(6.022792326888,54.992666941959));
#190 = CARTESIAN_POINT('',(6.151051034711,55.));
#191 = CARTESIAN_POINT('',(6.28318530718,55.));
#192 = ( GEOMETRIC_REPRESENTATION_CONTEXT(2) 
PARAMETRIC_REPRESENTATION_CONTEXT() REPRESENTATION_CONTEXT('2D SPACE',''
  ) );
#193 = ORIENTED_EDGE('',*,*,#194,.F.);
#194 = EDGE_CURVE('',#195,#80,#197,.T.);
#195 = VERTEX_POINT('',#196);
#196 = CARTESIAN_POINT('',(25.,-6.123233995737E-15,0.));
#197 = SEAM_CURVE('',#198,(#202,#209),.PCURVE_S1.);
#198 = LINE('',#199,#200);
#199 = CARTESIAN_POINT('',(25.,-6.123233995737E-15,0.));
#200 = VECTOR('',#201,1.);
#201 = DIRECTION('',(0.,0.,1.));
#202 = PCURVE('',#32,#203);
#203 = DEFINITIONAL_REPRESENTATION('',(#204),#208);
#204 = LINE('',#205,#206);
#205 = CARTESIAN_POINT('',(6.28318530718,-0.));
#206 = VECTOR('',#207,1.);
#207 = DIRECTION('',(0.,1.));
#208 = ( GEOMETRIC_REPRESENTATION_CONTEXT(2) 
PARAMETRIC_REPRESENTATION_CONTEXT() REPRESENTATION_CONTEXT('2D SPACE',''
  ) );
#209 = PCURVE('',#32,#210);
#210 = DEFINITIONAL_REPRESENTATION('',(#211),#215);
#211 = LINE('',#212,#213);
#212 = CARTESIAN_POINT('',(0.,-0.));
#213 = VECTOR('',#214,1.);
#214 = DIRECTION('',(0.,1.));
#215 = ( GEOMETRIC_REPRESENTATION_CONTEXT(2) 
PARAMETRIC_REPRESENTATION_CONTEXT() REPRESENTATION_CONTEXT('2D SPACE',''
  ) );
#216 = ORIENTED_EDGE('',*,*,#217,.T.);
#217 = EDGE_CURVE('',#195,#195,#218,.T.);
#218 = SURFACE_CURVE('',#219,(#224,#231),.PCURVE_S1.);
#219 = CIRCLE('',#220,25.);
#220 = AXIS2_PLACEMENT_3D('',#221,#222,#223);
#221 = CARTESIAN_POINT('',(0.,0.,0.));
#222 = DIRECTION('',(0.,0.,1.));
#223 = DIRECTION('',(1.,0.,-0.));
#224 = PCURVE('',#32,#225);
#225 = DEFINITIONAL_REPRESENTATION('',(#226),#230);
#226 = LINE('',#227,#228);
#227 = CARTESIAN_POINT('',(0.,0.));
#228 = VECTOR('',#229,1.);
#229 = DIRECTION('',(1.,0.));
#230 = ( GEOMETRIC_REPRESENTATION_CONTEXT(2) 
PARAMETRIC_REPRESENTATION_CONTEXT() REPRESENTATION_CONTEXT('2D SPACE',''
  ) );
#231 = PCURVE('',#232,#237);
#232 = PLANE('',#233);
#233 = AXIS2_PLACEMENT_3D('',#234,#235,#236);
#234 = CARTESIAN_POINT('',(0.,0.,0.));
#235 = DIRECTION('',(0.,0.,1.));
#236 = DIRECTION('',(1.,0.,-0.));
#237 = DEFINITIONAL_REPRESENTATION('',(#238),#242);
#238 = CIRCLE('',#239,25.);
#239 = AXIS2_PLACEMENT_2D('',#240,#241);
#240 = CARTESIAN_POINT('',(0.,0.));
#241 = DIRECTION('',(1.,0.));
#242 = ( GEOMETRIC_REPRESENTATION_CONTEXT(2) 
PARAMETRIC_REPRESENTATION_CONTEXT() REPRESENTATION_CONTEXT('2D SPACE',''
  ) );
#243 = ORIENTED_EDGE('',*,*,#194,.T.);
#244 = ORIENTED_EDGE('',*,*,#245,.F.);
#245 = EDGE_CURVE('',#22,#80,#246,.T.);
#246 = SURFACE_CURVE('',#247,(#280,#316),.PCURVE_S1.);
#247 = B_SPLINE_CURVE_WITH_KNOTS('',7,(#248,#249,#250,#251,#252,#253,
    #254,#255,#256,#257,#258,#259,#260,#261,#262,#263,#264,#265,#266,
    #267,#268,#269,#270,#271,#272,#273,#274,#275,#276,#277,#278,#279),
  .UNSPECIFIED.,.F.,.F.,(8,6,6,6,6,8),(0.,0.159685293725,0.312439301859,
    0.501085286706,0.760377660731,1.),.UNSPECIFIED.);
#248 = CARTESIAN_POINT('',(25.,-1.33226762955E-15,23.));
#249 = CARTESIAN_POINT('',(25.,-0.259480941952,23.));
#250 = CARTESIAN_POINT('',(24.996858519539,-0.516576274318,
    22.973815986918));
#251 = CARTESIAN_POINT('',(24.990676265762,-0.767162605427,
    22.922314391678));
#252 = CARTESIAN_POINT('',(24.981860439159,-1.007315836346,
    22.84740757556));
#253 = CARTESIAN_POINT('',(24.97106012223,-1.233560403092,
    22.751998433209));
#254 = CARTESIAN_POINT('',(24.959048106522,-1.443083902975,
    22.639940234295));
#255 = CARTESIAN_POINT('',(24.934592737772,-1.816467018199,
    22.397462404097));
#256 = CARTESIAN_POINT('',(24.92207751779,-1.983650621296,
    22.266923390209));
#257 = CARTESIAN_POINT('',(24.90946635997,-2.135601413539,
    22.126614906884));
#258 = CARTESIAN_POINT('',(24.897144848165,-2.272616513065,
    21.978375079251));
#259 = CARTESIAN_POINT('',(24.885418803422,-2.395087855472,
    21.823722490355));
#260 = CARTESIAN_POINT('',(24.87452191945,-2.503440238284,
    21.663914313579));
#261 = CARTESIAN_POINT('',(24.852421680509,-2.714948407112,
    21.297571418954));
#262 = CARTESIAN_POINT('',(24.841735675331,-2.811016832051,
    21.088681962162));
#263 = CARTESIAN_POINT('',(24.832910655328,-2.887036475625,
    20.875164155427));
#264 = CARTESIAN_POINT('',(24.826162176406,-2.943618848253,
    20.658446514461));
#265 = CARTESIAN_POINT('',(24.821619901254,-2.98119875603,
    20.439682564487));
#266 = CARTESIAN_POINT('',(24.819347291982,-3.,20.219875716476));
#267 = CARTESIAN_POINT('',(24.819347291982,-3.,19.697782613492));
#268 = CARTESIAN_POINT('',(24.82364047441,-2.964481683427,19.39591513272
    ));
#269 = CARTESIAN_POINT('',(24.832210083046,-2.89358599001,
    19.096698512825));
#270 = CARTESIAN_POINT('',(24.84483348038,-2.786458939277,
    18.802690458459));
#271 = CARTESIAN_POINT('',(24.861065377175,-2.641485165159,
    18.517186461662));
#272 = CARTESIAN_POINT('',(24.880060054949,-2.456542978146,
    18.244837725151));
#273 = CARTESIAN_POINT('',(24.91918542458,-2.019554526614,
    17.759512882043));
#274 = CARTESIAN_POINT('',(24.939641687387,-1.767843645687,
    17.537136648903));
#275 = CARTESIAN_POINT('',(24.960251250427,-1.474587595622,
    17.338951614489));
#276 = CARTESIAN_POINT('',(24.978775727373,-1.143511403136,
    17.176875548336));
#277 = CARTESIAN_POINT('',(24.99266694196,-0.781179214312,
    17.061107339696));
#278 = CARTESIAN_POINT('',(25.,-0.396402817384,17.));
#279 = CARTESIAN_POINT('',(25.,-1.33226762955E-15,17.));
#280 = PCURVE('',#32,#281);
#281 = DEFINITIONAL_REPRESENTATION('',(#282),#315);
#282 = B_SPLINE_CURVE_WITH_KNOTS('',7,(#283,#284,#285,#286,#287,#288,
    #289,#290,#291,#292,#293,#294,#295,#296,#297,#298,#299,#300,#301,
    #302,#303,#304,#305,#306,#307,#308,#309,#310,#311,#312,#313,#314),
  .UNSPECIFIED.,.F.,.F.,(8,6,6,6,6,8),(0.,0.159685293725,0.312439301859,
    0.501085286706,0.760377660731,1.),.UNSPECIFIED.);
#283 = CARTESIAN_POINT('',(6.28318530718,23.));
#284 = CARTESIAN_POINT('',(6.272806069501,23.));
#285 = CARTESIAN_POINT('',(6.262522254474,22.973815986918));
#286 = CARTESIAN_POINT('',(6.25249698253,22.922314391678));
#287 = CARTESIAN_POINT('',(6.242885508728,22.84740757556));
#288 = CARTESIAN_POINT('',(6.233826114006,22.751998433209));
#289 = CARTESIAN_POINT('',(6.225431688206,22.639940234295));
#290 = CARTESIAN_POINT('',(6.210464362952,22.397462404097));
#291 = CARTESIAN_POINT('',(6.20375859865,22.266923390209));
#292 = CARTESIAN_POINT('',(6.197659952259,22.126614906884));
#293 = CARTESIAN_POINT('',(6.192157417544,21.978375079251));
#294 = CARTESIAN_POINT('',(6.187236254562,21.823722490355));
#295 = CARTESIAN_POINT('',(6.182880329604,21.663914313579));
#296 = CARTESIAN_POINT('',(6.17437394367,21.297571418954));
#297 = CARTESIAN_POINT('',(6.17050759218,21.088681962162));
#298 = CARTESIAN_POINT('',(6.167446419354,20.875164155427));
#299 = CARTESIAN_POINT('',(6.165167084307,20.658446514461));
#300 = CARTESIAN_POINT('',(6.163652949256,20.439682564487));
#301 = CARTESIAN_POINT('',(6.162895424785,20.219875716476));
#302 = CARTESIAN_POINT('',(6.162895424785,19.697782613492));
#303 = CARTESIAN_POINT('',(6.164326497837,19.39591513272));
#304 = CARTESIAN_POINT('',(6.167182970643,19.096698512825));
#305 = CARTESIAN_POINT('',(6.17149767137,18.802690458459));
#306 = CARTESIAN_POINT('',(6.177332655765,18.517186461662));
#307 = CARTESIAN_POINT('',(6.184768625332,18.244837725151));
#308 = CARTESIAN_POINT('',(6.202318084643,17.759512882043));
#309 = CARTESIAN_POINT('',(6.212419368855,17.537136648903));
#310 = CARTESIAN_POINT('',(6.224177396793,17.338951614489));
#311 = CARTESIAN_POINT('',(6.237438369721,17.176875548336));
#312 = CARTESIAN_POINT('',(6.251938132159,17.061107339696));
#313 = CARTESIAN_POINT('',(6.267329194484,17.));
#314 = CARTESIAN_POINT('',(6.28318530718,17.));
#315 = ( GEOMETRIC_REPRESENTATION_CONTEXT(2) 
PARAMETRIC_REPRESENTATION_CONTEXT() REPRESENTATION_CONTEXT('2D SPACE',''
  ) );
#316 = PCURVE('',#153,#317);
#317 = DEFINITIONAL_REPRESENTATION('',(#318),#351);
#318 = B_SPLINE_CURVE_WITH_KNOTS('',7,(#319,#320,#321,#322,#323,#324,
    #325,#326,#327,#328,#329,#330,#331,#332,#333,#334,#335,#336,#337,
    #338,#339,#340,#341,#342,#343,#344,#345,#346,#347,#348,#349,#350),
  .UNSPECIFIED.,.F.,.F.,(8,6,6,6,6,8),(0.,0.159685293725,0.312439301859,
    0.501085286706,0.760377660731,1.),.UNSPECIFIED.);
#319 = CARTESIAN_POINT('',(-8.881784197001E-16,55.));
#320 = CARTESIAN_POINT('',(8.649364731744E-02,55.));
#321 = CARTESIAN_POINT('',(0.172191992953,54.996858519539));
#322 = CARTESIAN_POINT('',(0.256778060987,54.990676265762));
#323 = CARTESIAN_POINT('',(0.339911549553,54.981860439159));
#324 = CARTESIAN_POINT('',(0.421193706068,54.97106012223));
#325 = CARTESIAN_POINT('',(0.500111151424,54.959048106522));
#326 = CARTESIAN_POINT('',(0.64851392501,54.934592737772));
#327 = CARTESIAN_POINT('',(0.718950258778,54.92207751779));
#328 = CARTESIAN_POINT('',(0.787524977608,54.90946635997));
#329 = CARTESIAN_POINT('',(0.854449423201,54.897144848165));
#330 = CARTESIAN_POINT('',(0.919915379732,54.885418803422));
#331 = CARTESIAN_POINT('',(0.984106902484,54.87452191945));
#332 = CARTESIAN_POINT('',(1.125112348369,54.852421680509));
#333 = CARTESIAN_POINT('',(1.201425171583,54.841735675331));
#334 = CARTESIAN_POINT('',(1.276504103761,54.832910655328));
#335 = CARTESIAN_POINT('',(1.350671686375,54.826162176406));
#336 = CARTESIAN_POINT('',(1.424235225222,54.821619901254));
#337 = CARTESIAN_POINT('',(1.497504421303,54.819347291982));
#338 = CARTESIAN_POINT('',(1.671535455631,54.819347291982));
#339 = CARTESIAN_POINT('',(1.772157710838,54.82364047441));
#340 = CARTESIAN_POINT('',(1.873567500372,54.832210083046));
#341 = CARTESIAN_POINT('',(1.976560106296,54.84483348038));
#342 = CARTESIAN_POINT('',(2.081983330592,54.861065377175));
#343 = CARTESIAN_POINT('',(2.190698502604,54.880060054949));
#344 = CARTESIAN_POINT('',(2.408388167063,54.91918542458));
#345 = CARTESIAN_POINT('',(2.519616617603,54.939641687387));
#346 = CARTESIAN_POINT('',(2.635985142996,54.960251250427));
#347 = CARTESIAN_POINT('',(2.756653913236,54.978775727373));
#348 = CARTESIAN_POINT('',(2.881199673291,54.99266694196));
#349 = CARTESIAN_POINT('',(3.009458381129,55.));
#350 = CARTESIAN_POINT('',(3.14159265359,55.));
#351 = ( GEOMETRIC_REPRESENTATION_CONTEXT(2) 
PARAMETRIC_REPRESENTATION_CONTEXT() REPRESENTATION_CONTEXT('2D SPACE',''
  ) );
#352 = FACE_BOUND('',#353,.T.);
#353 = EDGE_LOOP('',(#354));
#354 = ORIENTED_EDGE('',*,*,#355,.T.);
#355 = EDGE_CURVE('',#356,#356,#358,.T.);
#356 = VERTEX_POINT('',#357);
#357 = CARTESIAN_POINT('',(-25.,7.347880794884E-16,23.));
#358 = SURFACE_CURVE('',#359,(#422,#488),.PCURVE_S1.);
#359 = B_SPLINE_CURVE_WITH_KNOTS('',7,(#360,#361,#362,#363,#364,#365,
    #366,#367,#368,#369,#370,#371,#372,#373,#374,#375,#376,#377,#378,
    #379,#380,#381,#382,#383,#384,#385,#386,#387,#388,#389,#390,#391,
    #392,#393,#394,#395,#396,#397,#398,#399,#400,#401,#402,#403,#404,
    #405,#406,#407,#408,#409,#410,#411,#412,#413,#414,#415,#416,#417,
    #418,#419,#420,#421),.UNSPECIFIED.,.T.,.F.,(8,6,6,6,6,6,6,6,6,6,8),(
    0.,7.967679026118E-02,0.155895136884,0.25002219278,0.379399066628,
    0.468709462429,0.549500069924,0.656167618217,0.75050488685,
    0.880170696397,1.),.UNSPECIFIED.);
#360 = CARTESIAN_POINT('',(-25.,3.10862446895E-15,23.));
#361 = CARTESIAN_POINT('',(-25.,-0.259480941952,23.));
#362 = CARTESIAN_POINT('',(-24.99685851953,-0.516576274318,
    22.973815986918));
#363 = CARTESIAN_POINT('',(-24.99067626576,-0.767162605427,
    22.922314391678));
#364 = CARTESIAN_POINT('',(-24.98186043915,-1.007315836346,
    22.84740757556));
#365 = CARTESIAN_POINT('',(-24.97106012223,-1.233560403092,
    22.751998433209));
#366 = CARTESIAN_POINT('',(-24.95904810652,-1.443083902975,
    22.639940234295));
#367 = CARTESIAN_POINT('',(-24.93459273777,-1.816467018199,
    22.397462404097));
#368 = CARTESIAN_POINT('',(-24.92207751779,-1.983650621296,
    22.266923390208));
#369 = CARTESIAN_POINT('',(-24.90946635997,-2.135601413539,
    22.126614906884));
#370 = CARTESIAN_POINT('',(-24.89714484816,-2.272616513065,
    21.978375079251));
#371 = CARTESIAN_POINT('',(-24.88541880342,-2.395087855472,
    21.823722490355));
#372 = CARTESIAN_POINT('',(-24.87452191945,-2.503440238284,
    21.663914313579));
#373 = CARTESIAN_POINT('',(-24.8524216805,-2.714948407112,
    21.297571418954));
#374 = CARTESIAN_POINT('',(-24.84173567533,-2.811016832051,
    21.088681962162));
#375 = CARTESIAN_POINT('',(-24.83291065532,-2.887036475625,
    20.875164155427));
#376 = CARTESIAN_POINT('',(-24.8261621764,-2.943618848253,
    20.658446514461));
#377 = CARTESIAN_POINT('',(-24.82161990125,-2.98119875603,
    20.439682564487));
#378 = CARTESIAN_POINT('',(-24.81934729198,-3.,20.219875716476));
#379 = CARTESIAN_POINT('',(-24.81934729198,-3.,19.697782613493));
#380 = CARTESIAN_POINT('',(-24.82364047441,-2.964481683427,
    19.395915132719));
#381 = CARTESIAN_POINT('',(-24.83221008304,-2.89358599001,
    19.096698512826));
#382 = CARTESIAN_POINT('',(-24.84483348038,-2.786458939277,
    18.802690458458));
#383 = CARTESIAN_POINT('',(-24.86106537717,-2.64148516516,
    18.517186461662));
#384 = CARTESIAN_POINT('',(-24.88006005494,-2.456542978146,
    18.244837725151));
#385 = CARTESIAN_POINT('',(-24.91443078328,-2.072658774758,
    17.818491124623));
#386 = CARTESIAN_POINT('',(-24.92920915404,-1.894636196538,
    17.652681119314));
#387 = CARTESIAN_POINT('',(-24.94418074664,-1.695190564851,
    17.498927504414));
#388 = CARTESIAN_POINT('',(-24.9586267457,-1.474729927721,
    17.361073458632));
#389 = CARTESIAN_POINT('',(-24.971693882,-1.234231806219,17.243048807591
    ));
#390 = CARTESIAN_POINT('',(-24.98248277912,-0.975306163042,
    17.148904712351));
#391 = CARTESIAN_POINT('',(-24.99715944005,-0.451596861176,
    17.02317323304));
#392 = CARTESIAN_POINT('',(-25.00154934238,-0.191811150968,
    16.986974919521));
#393 = CARTESIAN_POINT('',(-25.00274730514,7.363217430515E-02,
    16.977524847582));
#394 = CARTESIAN_POINT('',(-25.00047358383,0.338778769964,
    16.995958186952));
#395 = CARTESIAN_POINT('',(-24.99493839086,0.597630603047,
    17.041360712435));
#396 = CARTESIAN_POINT('',(-24.98679285983,0.844629699747,
    17.110787983745));
#397 = CARTESIAN_POINT('',(-24.96377430528,1.379398037888,
    17.316066315832));
#398 = CARTESIAN_POINT('',(-24.94755391853,1.655562172079,
    17.466329712348));
#399 = CARTESIAN_POINT('',(-24.92970659243,1.902147073717,
    17.642521413993));
#400 = CARTESIAN_POINT('',(-24.91159692301,2.118989730594,
    17.838580701985));
#401 = CARTESIAN_POINT('',(-24.89425978551,2.306612836134,
    18.049499379797));
#402 = CARTESIAN_POINT('',(-24.87844149492,2.465928325732,
    18.271113147991));
#403 = CARTESIAN_POINT('',(-24.8524216805,2.714948407112,18.702428581046
    ));
#404 = CARTESIAN_POINT('',(-24.84173567533,2.811016832051,
    18.911318037838));
#405 = CARTESIAN_POINT('',(-24.83291065532,2.887036475625,
    19.124835844573));
#406 = CARTESIAN_POINT('',(-24.8261621764,2.943618848253,19.341553485539
    ));
#407 = CARTESIAN_POINT('',(-24.82161990125,2.98119875603,19.560317435513
    ));
#408 = CARTESIAN_POINT('',(-24.81934729198,3.,19.780124283524));
#409 = CARTESIAN_POINT('',(-24.81934729198,3.,20.302217386507));
#410 = CARTESIAN_POINT('',(-24.82364047441,2.964481683427,
    20.604084867282));
#411 = CARTESIAN_POINT('',(-24.83221008304,2.89358599001,20.903301487172
    ));
#412 = CARTESIAN_POINT('',(-24.84483348038,2.786458939277,
    21.197309541543));
#413 = CARTESIAN_POINT('',(-24.86106537717,2.64148516516,21.482813538337
    ));
#414 = CARTESIAN_POINT('',(-24.88006005494,2.456542978146,
    21.755162274849));
#415 = CARTESIAN_POINT('',(-24.91918542458,2.019554526599,
    22.240487117973));
#416 = CARTESIAN_POINT('',(-24.93964168738,1.7678436457,22.462863351074)
  );
#417 = CARTESIAN_POINT('',(-24.96025125042,1.47458759564,22.661048385511
    ));
#418 = CARTESIAN_POINT('',(-24.97877572737,1.143511403119,
    22.823124451679));
#419 = CARTESIAN_POINT('',(-24.99266694195,0.781179214291,
    22.938892660297));
#420 = CARTESIAN_POINT('',(-25.,0.396402817406,23.));
#421 = CARTESIAN_POINT('',(-25.,3.10862446895E-15,23.));
#422 = PCURVE('',#32,#423);
#423 = DEFINITIONAL_REPRESENTATION('',(#424),#487);
#424 = B_SPLINE_CURVE_WITH_KNOTS('',7,(#425,#426,#427,#428,#429,#430,
    #431,#432,#433,#434,#435,#436,#437,#438,#439,#440,#441,#442,#443,
    #444,#445,#446,#447,#448,#449,#450,#451,#452,#453,#454,#455,#456,
    #457,#458,#459,#460,#461,#462,#463,#464,#465,#466,#467,#468,#469,
    #470,#471,#472,#473,#474,#475,#476,#477,#478,#479,#480,#481,#482,
    #483,#484,#485,#486),.UNSPECIFIED.,.T.,.F.,(8,6,6,6,6,6,6,6,6,6,8),(
    0.,7.967679026118E-02,0.155895136884,0.25002219278,0.379399066628,
    0.468709462429,0.549500069924,0.656167618217,0.75050488685,
    0.880170696397,1.),.UNSPECIFIED.);
#425 = CARTESIAN_POINT('',(3.14159265359,23.));
#426 = CARTESIAN_POINT('',(3.151971891268,23.));
#427 = CARTESIAN_POINT('',(3.162255706296,22.973815986918));
#428 = CARTESIAN_POINT('',(3.172280978239,22.922314391678));
#429 = CARTESIAN_POINT('',(3.181892452042,22.84740757556));
#430 = CARTESIAN_POINT('',(3.190951846764,22.751998433209));
#431 = CARTESIAN_POINT('',(3.199346272563,22.639940234295));
#432 = CARTESIAN_POINT('',(3.214313597817,22.397462404097));
#433 = CARTESIAN_POINT('',(3.221019362119,22.266923390208));
#434 = CARTESIAN_POINT('',(3.22711800851,22.126614906884));
#435 = CARTESIAN_POINT('',(3.232620543225,21.978375079251));
#436 = CARTESIAN_POINT('',(3.237541706207,21.823722490355));
#437 = CARTESIAN_POINT('',(3.241897631165,21.663914313579));
#438 = CARTESIAN_POINT('',(3.2504040171,21.297571418954));
#439 = CARTESIAN_POINT('',(3.25427036859,21.088681962162));
#440 = CARTESIAN_POINT('',(3.257331541415,20.875164155427));
#441 = CARTESIAN_POINT('',(3.259610876462,20.658446514461));
#442 = CARTESIAN_POINT('',(3.261125011514,20.439682564487));
#443 = CARTESIAN_POINT('',(3.261882535985,20.219875716476));
#444 = CARTESIAN_POINT('',(3.261882535985,19.697782613493));
#445 = CARTESIAN_POINT('',(3.260451462932,19.395915132719));
#446 = CARTESIAN_POINT('',(3.257594990126,19.096698512826));
#447 = CARTESIAN_POINT('',(3.253280289399,18.802690458458));
#448 = CARTESIAN_POINT('',(3.247445305004,18.517186461662));
#449 = CARTESIAN_POINT('',(3.240009335438,18.244837725151));
#450 = CARTESIAN_POINT('',(3.224592543108,17.818491124623));
#451 = CARTESIAN_POINT('',(3.217447300502,17.652681119314));
#452 = CARTESIAN_POINT('',(3.209447431067,17.498927504414));
#453 = CARTESIAN_POINT('',(3.200610914551,17.361073458632));
#454 = CARTESIAN_POINT('',(3.190977929026,17.243048807591));
#455 = CARTESIAN_POINT('',(3.180612883559,17.148904712351));
#456 = CARTESIAN_POINT('',(3.159656286994,17.02317323304));
#457 = CARTESIAN_POINT('',(3.149264003524,16.986974919521));
#458 = CARTESIAN_POINT('',(3.138647534987,16.977524847582));
#459 = CARTESIAN_POINT('',(3.128042836576,16.995958186952));
#460 = CARTESIAN_POINT('',(3.117687585778,17.041360712435));
#461 = CARTESIAN_POINT('',(3.107802735972,17.110787983745));
#462 = CARTESIAN_POINT('',(3.086392195416,17.316066315832));
#463 = CARTESIAN_POINT('',(3.075327948933,17.466329712348));
#464 = CARTESIAN_POINT('',(3.065440015737,17.642521413993));
#465 = CARTESIAN_POINT('',(3.056736786739,17.838580701985));
#466 = CARTESIAN_POINT('',(3.049200192141,18.049499379797));
#467 = CARTESIAN_POINT('',(3.042796321317,18.271113147991));
#468 = CARTESIAN_POINT('',(3.03278129008,18.702428581046));
#469 = CARTESIAN_POINT('',(3.02891493859,18.911318037838));
#470 = CARTESIAN_POINT('',(3.025853765764,19.124835844573));
#471 = CARTESIAN_POINT('',(3.023574430717,19.341553485539));
#472 = CARTESIAN_POINT('',(3.022060295666,19.560317435513));
#473 = CARTESIAN_POINT('',(3.021302771195,19.780124283524));
#474 = CARTESIAN_POINT('',(3.021302771195,20.302217386507));
#475 = CARTESIAN_POINT('',(3.022733844247,20.604084867282));
#476 = CARTESIAN_POINT('',(3.025590317053,20.903301487172));
#477 = CARTESIAN_POINT('',(3.02990501778,21.197309541543));
#478 = CARTESIAN_POINT('',(3.035740002175,21.482813538337));
#479 = CARTESIAN_POINT('',(3.043175971742,21.755162274849));
#480 = CARTESIAN_POINT('',(3.060725431054,22.240487117973));
#481 = CARTESIAN_POINT('',(3.070826715265,22.462863351074));
#482 = CARTESIAN_POINT('',(3.082584743202,22.661048385511));
#483 = CARTESIAN_POINT('',(3.095845716132,22.823124451679));
#484 = CARTESIAN_POINT('',(3.11034547857,22.938892660297));
#485 = CARTESIAN_POINT('',(3.125736540894,23.));
#486 = CARTESIAN_POINT('',(3.14159265359,23.));
#487 = ( GEOMETRIC_REPRESENTATION_CONTEXT(2) 
PARAMETRIC_REPRESENTATION_CONTEXT() REPRESENTATION_CONTEXT('2D SPACE',''
  ) );
#488 = PCURVE('',#153,#489);
#489 = DEFINITIONAL_REPRESENTATION('',(#490),#553);
#490 = B_SPLINE_CURVE_WITH_KNOTS('',7,(#491,#492,#493,#494,#495,#496,
    #497,#498,#499,#500,#501,#502,#503,#504,#505,#506,#507,#508,#509,
    #510,#511,#512,#513,#514,#515,#516,#517,#518,#519,#520,#521,#522,
    #523,#524,#525,#526,#527,#528,#529,#530,#531,#532,#533,#534,#535,
    #536,#537,#538,#539,#540,#541,#542,#543,#544,#545,#546,#547,#548,
    #549,#550,#551,#552),.UNSPECIFIED.,.F.,.F.,(8,6,6,6,6,6,6,6,6,6,8),(
    0.,7.967679026118E-02,0.155895136884,0.25002219278,0.379399066628,
    0.468709462429,0.549500069924,0.656167618217,0.75050488685,
    0.880170696397,1.),.UNSPECIFIED.);
#491 = CARTESIAN_POINT('',(-8.881784197001E-16,5.));
#492 = CARTESIAN_POINT('',(8.64936473174E-02,5.));
#493 = CARTESIAN_POINT('',(0.172191992953,5.003141480461));
#494 = CARTESIAN_POINT('',(0.256778060987,5.009323734238));
#495 = CARTESIAN_POINT('',(0.339911549553,5.018139560841));
#496 = CARTESIAN_POINT('',(0.421193706068,5.02893987777));
#497 = CARTESIAN_POINT('',(0.500111151424,5.040951893478));
#498 = CARTESIAN_POINT('',(0.64851392501,5.065407262228));
#499 = CARTESIAN_POINT('',(0.718950258778,5.07792248221));
#500 = CARTESIAN_POINT('',(0.787524977608,5.09053364003));
#501 = CARTESIAN_POINT('',(0.854449423201,5.102855151835));
#502 = CARTESIAN_POINT('',(0.919915379732,5.114581196578));
#503 = CARTESIAN_POINT('',(0.984106902484,5.12547808055));
#504 = CARTESIAN_POINT('',(1.125112348369,5.147578319491));
#505 = CARTESIAN_POINT('',(1.201425171583,5.158264324669));
#506 = CARTESIAN_POINT('',(1.276504103761,5.167089344672));
#507 = CARTESIAN_POINT('',(1.350671686375,5.173837823594));
#508 = CARTESIAN_POINT('',(1.424235225222,5.178380098746));
#509 = CARTESIAN_POINT('',(1.497504421303,5.180652708018));
#510 = CARTESIAN_POINT('',(1.671535455631,5.180652708018));
#511 = CARTESIAN_POINT('',(1.772157710838,5.17635952559));
#512 = CARTESIAN_POINT('',(1.873567500372,5.167789916954));
#513 = CARTESIAN_POINT('',(1.976560106296,5.15516651962));
#514 = CARTESIAN_POINT('',(2.081983330592,5.138934622825));
#515 = CARTESIAN_POINT('',(2.190698502604,5.119939945051));
#516 = CARTESIAN_POINT('',(2.381933815879,5.085569216717));
#517 = CARTESIAN_POINT('',(2.462714549914,5.07079084596));
#518 = CARTESIAN_POINT('',(2.546063640354,5.055819253353));
#519 = CARTESIAN_POINT('',(2.631960417666,5.041373254294));
#520 = CARTESIAN_POINT('',(2.720461997681,5.028306117995));
#521 = CARTESIAN_POINT('',(2.811712071468,5.017517220877));
#522 = CARTESIAN_POINT('',(2.991242272502,5.002840559946));
#523 = CARTESIAN_POINT('',(3.078261384654,4.998450657615));
#524 = CARTESIAN_POINT('',(3.166046695896,4.997252694851));
#525 = CARTESIAN_POINT('',(3.253776158069,4.999526416161));
#526 = CARTESIAN_POINT('',(3.340663593245,5.005061609137));
#527 = CARTESIAN_POINT('',(3.42582138626,5.013207140163));
#528 = CARTESIAN_POINT('',(3.616759528979,5.036225694717));
#529 = CARTESIAN_POINT('',(3.720650041694,5.052446081462));
#530 = CARTESIAN_POINT('',(3.820526513478,5.070293407568));
#531 = CARTESIAN_POINT('',(3.916889556752,5.088403076985));
#532 = CARTESIAN_POINT('',(4.010164846351,5.105740214487));
#533 = CARTESIAN_POINT('',(4.100691614372,5.121558505078));
#534 = CARTESIAN_POINT('',(4.266705001959,5.147578319491));
#535 = CARTESIAN_POINT('',(4.343017825172,5.158264324669));
#536 = CARTESIAN_POINT('',(4.418096757351,5.167089344672));
#537 = CARTESIAN_POINT('',(4.492264339965,5.173837823594));
#538 = CARTESIAN_POINT('',(4.565827878812,5.178380098746));
#539 = CARTESIAN_POINT('',(4.639097074893,5.180652708018));
#540 = CARTESIAN_POINT('',(4.81312810922,5.180652708018));
#541 = CARTESIAN_POINT('',(4.913750364428,5.17635952559));
#542 = CARTESIAN_POINT('',(5.01516015396,5.167789916954));
#543 = CARTESIAN_POINT('',(5.118152759887,5.15516651962));
#544 = CARTESIAN_POINT('',(5.223575984181,5.138934622825));
#545 = CARTESIAN_POINT('',(5.332291156194,5.119939945051));
#546 = CARTESIAN_POINT('',(5.54998082066,5.080814575419));
#547 = CARTESIAN_POINT('',(5.661209271184,5.060358312614));
#548 = CARTESIAN_POINT('',(5.777577796582,5.039748749574));
#549 = CARTESIAN_POINT('',(5.898246566831,5.021224272625));
#550 = CARTESIAN_POINT('',(6.022792326888,5.007333058041));
#551 = CARTESIAN_POINT('',(6.151051034711,5.));
#552 = CARTESIAN_POINT('',(6.28318530718,5.));
#553 = ( GEOMETRIC_REPRESENTATION_CONTEXT(2) 
PARAMETRIC_REPRESENTATION_CONTEXT() REPRESENTATION_CONTEXT('2D SPACE',''
  ) );
#554 = ADVANCED_FACE('',(#555),#153,.F.);
#555 = FACE_BOUND('',#556,.F.);
#556 = EDGE_LOOP('',(#557,#558,#579,#580,#581));
#557 = ORIENTED_EDGE('',*,*,#245,.F.);
#558 = ORIENTED_EDGE('',*,*,#559,.F.);
#559 = EDGE_CURVE('',#356,#22,#560,.T.);
#560 = SEAM_CURVE('',#561,(#565,#572),.PCURVE_S1.);
#561 = LINE('',#562,#563);
#562 = CARTESIAN_POINT('',(-30.,7.347880794884E-16,23.));
#563 = VECTOR('',#564,1.);
#564 = DIRECTION('',(1.,0.,0.));
#565 = PCURVE('',#153,#566);
#566 = DEFINITIONAL_REPRESENTATION('',(#567),#571);
#567 = LINE('',#568,#569);
#568 = CARTESIAN_POINT('',(6.28318530718,-0.));
#569 = VECTOR('',#570,1.);
#570 = DIRECTION('',(0.,1.));
#571 = ( GEOMETRIC_REPRESENTATION_CONTEXT(2) 
PARAMETRIC_REPRESENTATION_CONTEXT() REPRESENTATION_CONTEXT('2D SPACE',''
  ) );
#572 = PCURVE('',#153,#573);
#573 = DEFINITIONAL_REPRESENTATION('',(#574),#578);
#574 = LINE('',#575,#576);
#575 = CARTESIAN_POINT('',(0.,-0.));
#576 = VECTOR('',#577,1.);
#577 = DIRECTION('',(0.,1.));
#578 = ( GEOMETRIC_REPRESENTATION_CONTEXT(2) 
PARAMETRIC_REPRESENTATION_CONTEXT() REPRESENTATION_CONTEXT('2D SPACE',''
  ) );
#579 = ORIENTED_EDGE('',*,*,#355,.T.);
#580 = ORIENTED_EDGE('',*,*,#559,.T.);
#581 = ORIENTED_EDGE('',*,*,#79,.F.);
#582 = ADVANCED_FACE('',(#583),#232,.F.);
#583 = FACE_BOUND('',#584,.T.);
#584 = EDGE_LOOP('',(#585));
#585 = ORIENTED_EDGE('',*,*,#217,.F.);
#586 = ADVANCED_FACE('',(#587,#590),#66,.T.);
#587 = FACE_BOUND('',#588,.T.);
#588 = EDGE_LOOP('',(#589));
#589 = ORIENTED_EDGE('',*,*,#51,.T.);
#590 = FACE_BOUND('',#591,.T.);
#591 = EDGE_LOOP('',(#592));
#592 = ORIENTED_EDGE('',*,*,#593,.F.);
#593 = EDGE_CURVE('',#594,#594,#596,.T.);
#594 = VERTEX_POINT('',#595);
#595 = CARTESIAN_POINT('',(6.,-1.469576158977E-15,80.));
#596 = SURFACE_CURVE('',#597,(#602,#609),.PCURVE_S1.);
#597 = CIRCLE('',#598,6.);
#598 = AXIS2_PLACEMENT_3D('',#599,#600,#601);
#599 = CARTESIAN_POINT('',(0.,0.,80.));
#600 = DIRECTION('',(0.,0.,1.));
#601 = DIRECTION('',(1.,0.,-0.));
#602 = PCURVE('',#66,#603);
#603 = DEFINITIONAL_REPRESENTATION('',(#604),#608);
#604 = CIRCLE('',#605,6.);
#605 = AXIS2_PLACEMENT_2D('',#606,#607);
#606 = CARTESIAN_POINT('',(0.,0.));
#607 = DIRECTION('',(1.,0.));
#608 = ( GEOMETRIC_REPRESENTATION_CONTEXT(2) 
PARAMETRIC_REPRESENTATION_CONTEXT() REPRESENTATION_CONTEXT('2D SPACE',''
  ) );
#609 = PCURVE('',#610,#615);
#610 = CYLINDRICAL_SURFACE('',#611,6.);
#611 = AXIS2_PLACEMENT_3D('',#612,#613,#614);
#612 = CARTESIAN_POINT('',(0.,0.,50.));
#613 = DIRECTION('',(0.,0.,1.));
#614 = DIRECTION('',(1.,0.,-0.));
#615 = DEFINITIONAL_REPRESENTATION('',(#616),#620);
#616 = LINE('',#617,#618);
#617 = CARTESIAN_POINT('',(0.,30.));
#618 = VECTOR('',#619,1.);
#619 = DIRECTION('',(1.,0.));
#620 = ( GEOMETRIC_REPRESENTATION_CONTEXT(2) 
PARAMETRIC_REPRESENTATION_CONTEXT() REPRESENTATION_CONTEXT('2D SPACE',''
  ) );
#621 = ADVANCED_FACE('',(#622),#610,.F.);
#622 = FACE_BOUND('',#623,.F.);
#623 = EDGE_LOOP('',(#624,#625,#648,#675));
#624 = ORIENTED_EDGE('',*,*,#593,.F.);
#625 = ORIENTED_EDGE('',*,*,#626,.F.);
#626 = EDGE_CURVE('',#627,#594,#629,.T.);
#627 = VERTEX_POINT('',#628);
#628 = CARTESIAN_POINT('',(6.,-1.469576158977E-15,50.));
#629 = SEAM_CURVE('',#630,(#634,#641),.PCURVE_S1.);
#630 = LINE('',#631,#632);
#631 = CARTESIAN_POINT('',(6.,-1.469576158977E-15,50.));
#632 = VECTOR('',#633,1.);
#633 = DIRECTION('',(0.,0.,1.));
#634 = PCURVE('',#610,#635);
#635 = DEFINITIONAL_REPRESENTATION('',(#636),#640);
#636 = LINE('',#637,#638);
#637 = CARTESIAN_POINT('',(6.28318530718,-0.));
#638 = VECTOR('',#639,1.);
#639 = DIRECTION('',(0.,1.));
#640 = ( GEOMETRIC_REPRESENTATION_CONTEXT(2) 
PARAMETRIC_REPRESENTATION_CONTEXT() REPRESENTATION_CONTEXT('2D SPACE',''
  ) );
#641 = PCURVE('',#610,#642);
#642 = DEFINITIONAL_REPRESENTATION('',(#643),#647);
#643 = LINE('',#644,#645);
#644 = CARTESIAN_POINT('',(0.,-0.));
#645 = VECTOR('',#646,1.);
#646 = DIRECTION('',(0.,1.));
#647 = ( GEOMETRIC_REPRESENTATION_CONTEXT(2) 
PARAMETRIC_REPRESENTATION_CONTEXT() REPRESENTATION_CONTEXT('2D SPACE',''
  ) );
#648 = ORIENTED_EDGE('',*,*,#649,.T.);
#649 = EDGE_CURVE('',#627,#627,#650,.T.);
#650 = SURFACE_CURVE('',#651,(#656,#663),.PCURVE_S1.);
#651 = CIRCLE('',#652,6.);
#652 = AXIS2_PLACEMENT_3D('',#653,#654,#655);
#653 = CARTESIAN_POINT('',(0.,0.,50.));
#654 = DIRECTION('',(0.,0.,1.));
#655 = DIRECTION('',(1.,0.,-0.));
#656 = PCURVE('',#610,#657);
#657 = DEFINITIONAL_REPRESENTATION('',(#658),#662);
#658 = LINE('',#659,#660);
#659 = CARTESIAN_POINT('',(0.,0.));
#660 = VECTOR('',#661,1.);
#661 = DIRECTION('',(1.,0.));
#662 = ( GEOMETRIC_REPRESENTATION_CONTEXT(2) 
PARAMETRIC_REPRESENTATION_CONTEXT() REPRESENTATION_CONTEXT('2D SPACE',''
  ) );
#663 = PCURVE('',#664,#669);
#664 = PLANE('',#665);
#665 = AXIS2_PLACEMENT_3D('',#666,#667,#668);
#666 = CARTESIAN_POINT('',(0.,0.,50.));
#667 = DIRECTION('',(0.,0.,1.));
#668 = DIRECTION('',(1.,0.,-0.));
#669 = DEFINITIONAL_REPRESENTATION('',(#670),#674);
#670 = CIRCLE('',#671,6.);
#671 = AXIS2_PLACEMENT_2D('',#672,#673);
#672 = CARTESIAN_POINT('',(0.,0.));
#673 = DIRECTION('',(1.,0.));
#674 = ( GEOMETRIC_REPRESENTATION_CONTEXT(2) 
PARAMETRIC_REPRESENTATION_CONTEXT() REPRESENTATION_CONTEXT('2D SPACE',''
  ) );
#675 = ORIENTED_EDGE('',*,*,#626,.T.);
#676 = ADVANCED_FACE('',(#677),#664,.T.);
#677 = FACE_BOUND('',#678,.F.);
#678 = EDGE_LOOP('',(#679));
#679 = ORIENTED_EDGE('',*,*,#649,.F.);
#680 = ( GEOMETRIC_REPRESENTATION_CONTEXT(3) 
GLOBAL_UNCERTAINTY_ASSIGNED_CONTEXT((#684)) GLOBAL_UNIT_ASSIGNED_CONTEXT
((#681,#682,#683)) REPRESENTATION_CONTEXT('Context #1',
  '3D Context with UNIT and UNCERTAINTY') );
#681 = ( LENGTH_UNIT() NAMED_UNIT(*) SI_UNIT(.MILLI.,.METRE.) );
#682 = ( NAMED_UNIT(*) PLANE_ANGLE_UNIT() SI_UNIT($,.RADIAN.) );
#683 = ( NAMED_UNIT(*) SI_UNIT($,.STERADIAN.) SOLID_ANGLE_UNIT() );
#684 = UNCERTAINTY_MEASURE_WITH_UNIT(LENGTH_MEASURE(1.E-07),#681,
  'distance_accuracy_value','confusion accuracy');
#685 = PRODUCT_RELATED_PRODUCT_CATEGORY('part',$,(#7));
ENDSEC;
END-ISO-10303-21;
